<svg xmlns="http://www.w3.org/2000/svg" xmlns:xlink="http://www.w3.org/1999/xlink" width="2000" zoomAndPan="magnify" viewBox="0 0 1500 374.999991" height="500" preserveAspectRatio="xMidYMid meet" version="1.0"><defs><g/><clipPath id="cb24a44cf8"><path d="M 1215 217 L 1345 217 L 1345 339.75 L 1215 339.75 Z M 1215 217 " clip-rule="nonzero"/></clipPath></defs><path fill="#f3f5f9" d="M 1323.539062 214.261719 C 1338.570312 214.261719 1350.796875 226.488281 1350.796875 241.519531 C 1350.796875 256.546875 1338.570312 268.777344 1323.539062 268.777344 C 1308.507812 268.777344 1296.28125 256.546875 1296.28125 241.519531 C 1296.28125 226.488281 1308.507812 214.261719 1323.539062 214.261719 Z M 1253.917969 6.230469 C 1241.636719 11.675781 1233.105469 20.765625 1229.246094 32.511719 C 1224.859375 45.867188 1226.214844 60.679688 1233.058594 74.230469 C 1236.492188 81.027344 1240.871094 87.277344 1245.429688 93.617188 C 1249.878906 99.796875 1254.652344 106.109375 1259.621094 112.375 C 1259.804688 112.609375 1260.023438 112.796875 1260.265625 112.933594 C 1272.925781 131.871094 1279.613281 153.953125 1279.613281 176.824219 C 1279.613281 190.308594 1277.308594 203.503906 1272.75 216.058594 L 1266.761719 216.058594 L 1266.761719 144.484375 L 1214.433594 144.484375 L 1214.433594 216.058594 L 1139.09375 216.058594 L 1139.09375 269.757812 L 1214.433594 269.757812 L 1214.433594 280.554688 C 1198.808594 288.085938 1182.027344 291.90625 1164.53125 291.90625 C 1137.335938 291.90625 1110.949219 282.246094 1090.230469 264.703125 L 1088.089844 266.832031 C 1089.132812 268.074219 1090.246094 269.335938 1091.394531 270.578125 L 1091.480469 270.664062 C 1113.328125 290.753906 1141.714844 301.816406 1171.410156 301.816406 C 1187.039062 301.816406 1202.21875 298.8125 1216.527344 292.890625 C 1232.503906 286.28125 1247.125 276 1258.808594 263.152344 C 1270.550781 250.242188 1279.421875 234.632812 1284.457031 218.015625 C 1287.816406 206.945312 1289.523438 195.398438 1289.523438 183.695312 C 1289.523438 155.253906 1279.265625 127.78125 1260.644531 106.332031 C 1255.785156 100.101562 1251.195312 93.9375 1247.003906 88.003906 C 1242.105469 81.074219 1238.261719 75.125 1235.421875 68.605469 C 1229.042969 53.957031 1230 36.679688 1237.859375 24.597656 C 1243.554688 15.84375 1254.621094 9.15625 1267.46875 6.71875 C 1279.226562 4.484375 1293.179688 5.53125 1305.757812 9.589844 C 1334.09375 18.734375 1350.066406 47.738281 1357.066406 64.214844 C 1367.707031 89.269531 1371.777344 118.15625 1368.828125 147.757812 C 1366.882812 167.285156 1360.386719 194.441406 1340.582031 213.488281 C 1335.609375 210.453125 1329.773438 208.707031 1323.539062 208.707031 C 1305.449219 208.707031 1290.726562 223.425781 1290.726562 241.519531 C 1290.726562 259.613281 1305.449219 274.332031 1323.539062 274.332031 C 1341.632812 274.332031 1356.355469 259.613281 1356.355469 241.519531 C 1356.355469 231.320312 1351.671875 222.191406 1344.347656 216.167969 C 1346.335938 214.226562 1348.199219 212.234375 1349.878906 210.21875 C 1364.601562 192.628906 1372.96875 167.429688 1374.085938 137.339844 C 1375.277344 105.210938 1368.773438 75.003906 1355.273438 49.996094 C 1348.265625 37.015625 1339.773438 26.269531 1330.027344 18.054688 C 1319.832031 9.464844 1307.46875 4.105469 1293.277344 2.132812 C 1278.0625 0.015625 1264.820312 1.394531 1253.917969 6.230469 " fill-opacity="1" fill-rule="nonzero"/><g clip-path="url(#cb24a44cf8)"><path fill="#3871c1" d="M 1323.539062 220.617188 C 1311.996094 220.617188 1302.640625 229.976562 1302.640625 241.519531 C 1302.640625 253.066406 1311.996094 262.421875 1323.539062 262.421875 C 1335.085938 262.421875 1344.441406 253.066406 1344.441406 241.519531 C 1344.441406 229.976562 1335.085938 220.617188 1323.539062 220.617188 Z M 1295.78125 217.578125 L 1291.734375 217.578125 C 1287.199219 236.726562 1277.933594 254.046875 1265.242188 268.242188 L 1298.445312 268.242188 C 1291.328125 261.554688 1286.878906 252.054688 1286.878906 241.515625 C 1286.878906 232.367188 1290.230469 224 1295.78125 217.578125 Z M 1215.945312 339.820312 L 1215.945312 300.957031 C 1235.113281 294.414062 1252.039062 283.027344 1265.246094 268.246094 L 1265.246094 339.820312 L 1215.945312 339.820312 " fill-opacity="1" fill-rule="nonzero"/></g><g fill="#f3f5f9" fill-opacity="1"><g transform="translate(205.815823, 265.238873)"><g><path d="M 85.546875 -81.34375 L 36.015625 -81.34375 L 36.015625 -57.8125 L 81.625 -57.8125 L 81.625 -37.46875 L 36.015625 -37.46875 L 36.015625 0 L 10.171875 0 L 10.171875 -101.671875 L 85.546875 -101.671875 Z M 85.546875 -81.34375 "/></g></g></g><g fill="#f3f5f9" fill-opacity="1"><g transform="translate(304.735093, 265.238873)"><g><path d="M 77.703125 -18.734375 L 33.265625 -18.734375 L 25.859375 0 L -0.71875 0 L 43.140625 -101.671875 L 69.71875 -101.671875 L 112.5625 0 L 84.96875 0 Z M 70.15625 -38.34375 L 55.625 -75.96875 L 40.8125 -38.34375 Z M 70.15625 -38.34375 "/></g></g></g><g fill="#f3f5f9" fill-opacity="1"><g transform="translate(427.766502, 265.238873)"><g><path d="M 71.46875 0 L 56.359375 -28.609375 L 36.015625 -28.609375 L 36.015625 0 L 10.171875 0 L 10.171875 -101.671875 L 55.625 -101.671875 C 69.09375 -101.671875 79.503906 -98.597656 86.859375 -92.453125 C 94.222656 -86.304688 97.90625 -77.566406 97.90625 -66.234375 C 97.90625 -50.546875 91.753906 -39.648438 79.453125 -33.546875 L 100.796875 0 Z M 36.015625 -48.953125 L 55.625 -48.953125 C 61.25 -48.953125 65.609375 -50.351562 68.703125 -53.15625 C 71.796875 -55.96875 73.34375 -60.035156 73.34375 -65.359375 C 73.34375 -70.585938 71.796875 -74.554688 68.703125 -77.265625 C 65.609375 -79.984375 61.25 -81.34375 55.625 -81.34375 L 36.015625 -81.34375 Z M 36.015625 -48.953125 "/></g></g></g><g fill="#f3f5f9" fill-opacity="1"><g transform="translate(544.116244, 265.238873)"><g><path d="M 121.859375 0 L 99.0625 0 L 98.921875 -66.09375 L 74.515625 -10.171875 L 57.671875 -10.171875 L 33.265625 -66.09375 L 33.265625 0 L 10.171875 0 L 10.171875 -101.8125 L 38.484375 -101.8125 L 66.09375 -41.25 L 93.6875 -101.8125 L 121.859375 -101.8125 Z M 121.859375 0 "/></g></g></g><g fill="#f3f5f9" fill-opacity="1"><g transform="translate(687.483175, 265.238873)"><g><path d="M 77.703125 -18.734375 L 33.265625 -18.734375 L 25.859375 0 L -0.71875 0 L 43.140625 -101.671875 L 69.71875 -101.671875 L 112.5625 0 L 84.96875 0 Z M 70.15625 -38.34375 L 55.625 -75.96875 L 40.8125 -38.34375 Z M 70.15625 -38.34375 "/></g></g></g><g fill="#f3f5f9" fill-opacity="1"><g transform="translate(810.514584, 265.238873)"><g><path d="M 57.8125 -102.546875 C 65.363281 -102.546875 72.796875 -100.992188 80.109375 -97.890625 C 87.421875 -94.796875 93.640625 -90.632812 98.765625 -85.40625 L 83.8125 -67.6875 C 80.519531 -71.75 76.570312 -74.96875 71.96875 -77.34375 C 67.375 -79.71875 62.800781 -80.90625 58.25 -80.90625 C 50.207031 -80.90625 43.472656 -78.070312 38.046875 -72.40625 C 32.628906 -66.738281 29.921875 -59.742188 29.921875 -51.421875 C 29.921875 -42.898438 32.628906 -35.78125 38.046875 -30.0625 C 43.472656 -24.351562 50.207031 -21.5 58.25 -21.5 C 62.507812 -21.5 66.9375 -22.5625 71.53125 -24.6875 C 76.132812 -26.820312 80.226562 -29.726562 83.8125 -33.40625 L 98.921875 -17.4375 C 93.398438 -11.8125 86.882812 -7.304688 79.375 -3.921875 C 71.875 -0.535156 64.394531 1.15625 56.9375 1.15625 C 41.632812 1.15625 28.898438 -3.828125 18.734375 -13.796875 C 8.566406 -23.773438 3.484375 -36.21875 3.484375 -51.125 C 3.484375 -65.75 8.660156 -77.972656 19.015625 -87.796875 C 29.378906 -97.628906 42.3125 -102.546875 57.8125 -102.546875 Z M 57.8125 -102.546875 "/></g></g></g><g fill="#f3f5f9" fill-opacity="1"><g transform="translate(922.216146, 265.238873)"><g><path d="M 36.015625 0 L 10.171875 0 L 10.171875 -101.671875 L 36.015625 -101.671875 Z M 36.015625 0 "/></g></g></g><g fill="#f3f5f9" fill-opacity="1"><g transform="translate(979.592806, 265.238873)"><g><path d="M 77.703125 -18.734375 L 33.265625 -18.734375 L 25.859375 0 L -0.71875 0 L 43.140625 -101.671875 L 69.71875 -101.671875 L 112.5625 0 L 84.96875 0 Z M 70.15625 -38.34375 L 55.625 -75.96875 L 40.8125 -38.34375 Z M 70.15625 -38.34375 "/></g></g></g></svg>